<?xml version="1.0" encoding="iso-8859-1"?>
<!-- Generator: Adobe Illustrator 18.0.0, SVG Export Plug-In . SVG Version: 6.00 Build 0)  -->
<!DOCTYPE svg PUBLIC "-//W3C//DTD SVG 1.1//EN" "http://www.w3.org/Graphics/SVG/1.1/DTD/svg11.dtd">
<svg xmlns="http://www.w3.org/2000/svg" xmlns:xlink="http://www.w3.org/1999/xlink" version="1.1" id="Capa_1" x="0px" y="0px" viewBox="0 0 288 288" style="enable-background:new 0 0 288 288;" xml:space="preserve" width="512px" height="512px">
<g>
	<path d="M261.579,68.492h-39.628c0.058-0.017,0.124-0.032,0.181-0.049c18.515-5.376,29.167-24.745,23.79-43.26   C241.49,9.92,227.546,0,212.413,0C193.907,0,157.221,24.141,144,37.813C128.5,21.784,98.199,5.129,85.335,1.394   C66.837-3.98,47.458,6.659,42.078,25.184c-5.377,18.515,5.275,37.884,23.79,43.26c0.057,0.017,0.123,0.032,0.181,0.049H26.421   c-6.458,0-11.693,5.235-11.693,11.693v29.212c0,6.458,5.235,11.693,11.693,11.693h16.124v145.273   c0,11.949,9.687,21.637,21.637,21.637h159.635c11.95,0,21.637-9.688,21.637-21.637V121.091h16.125   c6.458,0,11.693-5.235,11.693-11.693V80.186C273.272,73.728,268.037,68.492,261.579,68.492z M82.463,165.279   c0-14.836,12.069-26.905,26.905-26.905c14.836,0,26.906,12.069,26.906,26.905c0,14.836-12.07,26.906-26.906,26.906   C94.533,192.186,82.463,180.115,82.463,165.279z M117.997,247.153c-1.144,0-2.304-0.263-3.394-0.816   c-3.692-1.877-5.163-6.393-3.286-10.085l51.682-101.651c1.877-3.691,6.392-5.161,10.085-3.286   c3.692,1.877,5.163,6.393,3.286,10.085l-51.682,101.651C123.365,245.653,120.729,247.153,117.997,247.153z M178.63,239.277   c-14.836,0-26.905-12.07-26.905-26.906c0-14.836,12.069-26.905,26.905-26.905c14.836,0,26.906,12.069,26.906,26.905   C205.537,227.207,193.466,239.277,178.63,239.277z M177.085,36.863C183.823,32.412,204.277,20,212.413,20   c6.582,0,12.463,4.425,14.303,10.762c2.298,7.911-2.247,16.177-10.16,18.475c-4.132,1.2-15.944,2.984-31.55,2.984   c-11.408,0-19.59-0.973-25.06-2.082C163.528,46.704,169.009,42.197,177.085,36.863z M61.285,30.761   c2.222-7.653,10.345-12.521,18.475-10.16c4.842,1.405,17.71,7.381,31.156,16.263c8.075,5.334,13.557,9.841,17.139,13.275   c-5.471,1.109-13.652,2.082-25.06,2.082c-15.606,0-27.418-1.784-31.55-2.984C63.533,46.939,58.985,38.675,61.285,30.761z" fill="#FFDA44"/>
	<path d="M178.63,200.466c-6.564,0-11.905,5.341-11.905,11.905c0,6.565,5.341,11.906,11.905,11.906   c6.565,0,11.906-5.341,11.906-11.906C190.537,205.807,185.196,200.466,178.63,200.466z" fill="#FFDA44"/>
	<path d="M109.369,153.374c-6.564,0-11.905,5.341-11.905,11.905c0,6.565,5.341,11.906,11.905,11.906   c6.565,0,11.906-5.341,11.906-11.906C121.275,158.715,115.934,153.374,109.369,153.374z" fill="#FFDA44"/>
</g>
<g>
</g>
<g>
</g>
<g>
</g>
<g>
</g>
<g>
</g>
<g>
</g>
<g>
</g>
<g>
</g>
<g>
</g>
<g>
</g>
<g>
</g>
<g>
</g>
<g>
</g>
<g>
</g>
<g>
</g>
</svg>
